<?xml version="1.0" encoding="UTF-8"?><svg id="achterkant" xmlns="http://www.w3.org/2000/svg" viewBox="0 0 330.14 312.76"><defs><style>.cls-1{fill:#1d1d1b;}.cls-2{fill:#4a4a49;}</style></defs><path id="rechter-mouw" class="cls-2" d="M259.09,25.55c-1.49,79,5.87,92.64,5.87,92.64l.31,33.72,22.65,12.42,41.58-51.5L259.09,25.55h0Z"/><path id="linker-mouw" class="cls-2" d="M71.75,24.31C71.29,24.88,.64,112.82,.64,112.82l41.83,51.5,23.94-13.05,.48-40.89,1.51-6.9,2.04-15.38,.8-9.96,.55-10.6,.28-9.24-.06-8.42,.06-7.14v-10.34s.14-8.67-.31-8.1h-.01Z"/><path id="voorkant-achter" class="cls-1" d="M120.98,1.21l.99-.67,5.12,2.5s17.92,9.27,39.65,8.55c0,0,27.31,.93,42.94-10.17l49.96,24.12s-2.1,73.33,5.82,93.58l1.77,193.1H63.64l2.33-200.89s6.88-22.41,4.79-86.08L120.9,1.11"/></svg>